<?xml version="1.0" encoding="UTF-8"?>
<!-- Do not edit this file with editors other than draw.io -->
<!DOCTYPE svg PUBLIC "-//W3C//DTD SVG 1.1//EN" "http://www.w3.org/Graphics/SVG/1.1/DTD/svg11.dtd">
<svg xmlns="http://www.w3.org/2000/svg" style="background: transparent; background-color: transparent; color-scheme: light dark;" xmlns:xlink="http://www.w3.org/1999/xlink" version="1.1" width="100px" height="83px" viewBox="0 0 100 83" content="&lt;mxfile host=&quot;app.diagrams.net&quot; agent=&quot;Mozilla/5.0 (Windows NT 10.0; Win64; x64; rv:146.0) Gecko/20100101 Firefox/146.0&quot; version=&quot;29.2.7&quot;&gt;&#xA;  &lt;diagram name=&quot;Pagina-1&quot; id=&quot;XDd4zzLzQkDbsNErqeUJ&quot;&gt;&#xA;    &lt;mxGraphModel dx=&quot;1375&quot; dy=&quot;824&quot; grid=&quot;1&quot; gridSize=&quot;10&quot; guides=&quot;1&quot; tooltips=&quot;1&quot; connect=&quot;1&quot; arrows=&quot;1&quot; fold=&quot;1&quot; page=&quot;1&quot; pageScale=&quot;1&quot; pageWidth=&quot;827&quot; pageHeight=&quot;1169&quot; math=&quot;0&quot; shadow=&quot;0&quot;&gt;&#xA;      &lt;root&gt;&#xA;        &lt;mxCell id=&quot;0&quot; /&gt;&#xA;        &lt;mxCell id=&quot;1&quot; parent=&quot;0&quot; /&gt;&#xA;        &lt;mxCell id=&quot;PKAgoaXt9rJ7SqFUEubv-1&quot; parent=&quot;1&quot; style=&quot;sketch=0;html=1;aspect=fixed;strokeColor=none;shadow=0;fillColor=#3B8DF1;verticalAlign=top;labelPosition=center;verticalLabelPosition=bottom;shape=mxgraph.gcp2.internet_connection&quot; value=&quot;&quot; vertex=&quot;1&quot;&gt;&#xA;          &lt;mxGeometry height=&quot;83&quot; width=&quot;100&quot; x=&quot;360&quot; y=&quot;390&quot; as=&quot;geometry&quot; /&gt;&#xA;        &lt;/mxCell&gt;&#xA;      &lt;/root&gt;&#xA;    &lt;/mxGraphModel&gt;&#xA;  &lt;/diagram&gt;&#xA;&lt;/mxfile&gt;&#xA;"><defs/><g><g data-cell-id="0"><g data-cell-id="1"><g data-cell-id="PKAgoaXt9rJ7SqFUEubv-1"><g transform="translate(0.5,0.5)"><path d="M 24.92 35.26 C 25.4 31.14 27.32 27.55 30.12 25.01 C 32.53 22.81 35.76 21.44 38.94 21.2 C 38.52 18.25 39.55 13.55 43.41 10.49 C 47.16 7.67 52.48 8.41 54.96 10.53 C 58.17 5.18 66.23 0 75.31 3.35 C 80.97 5.18 85.45 11.24 86.61 15.93 C 89.37 15.36 93.31 16.73 95.14 19.54 C 97.89 23.38 97.03 27.6 95.38 29.75 C 99.72 35.64 100 41.49 97.74 45.93 C 95.81 49.88 91.59 53.28 86.12 53.28 L 54.38 53.28 L 54.38 35.26 Z" fill="#3b8df1" style="fill: light-dark(rgb(59, 141, 241), rgb(63, 133, 219));" stroke="none" pointer-events="all"/><path d="M 24.92 35.26 C 25.4 31.14 27.32 27.55 30.12 25.01 C 32.53 22.81 35.76 21.44 38.94 21.2 C 38.52 18.25 39.55 13.55 43.41 10.49 C 47.16 7.67 52.48 8.41 54.96 10.53 C 58.17 5.18 66.23 0 75.31 3.35 C 80.97 5.18 85.45 11.24 86.61 15.93 C 89.37 15.36 93.31 16.73 95.14 19.54 C 97.89 23.38 97.03 27.6 95.38 29.75 C 99.72 35.64 100 41.49 97.74 45.93 C 95.81 49.88 91.59 53.28 86.12 53.28 L 54.38 53.28 L 54.38 35.26 Z" fill-opacity="0.2" fill="#ffffff" style="fill: light-dark(rgb(255, 255, 255), rgb(18, 18, 18));" stroke="none" pointer-events="all"/><rect x="0" y="0" width="0" height="0" fill="none" stroke="none" pointer-events="all"/><path d="M 72.26 25.22 L 72.26 19.64 L 66.7 19.64 L 66.7 16.22 L 76.38 16.22 L 76.38 25.22 Z M 65.07 31.43 L 65.07 25.86 L 59.47 25.86 L 59.47 22.44 L 69.19 22.44 L 69.19 31.43 Z M 57.81 37.72 L 57.81 32.11 L 52.26 32.11 L 52.26 28.64 L 62.02 28.64 L 62.02 37.72 Z M 6.74 69.46 L 47.65 69.46 L 47.65 42 L 6.74 42 Z M 10.19 83 L 10.19 79.67 L 16.96 79.67 L 16.96 76.18 L 0 76.18 L 0 35.26 L 54.38 35.26 L 54.38 76.18 L 37.36 76.18 L 37.36 79.67 L 44.17 79.67 L 44.17 83 Z" fill="#3b8df1" style="fill: light-dark(rgb(59, 141, 241), rgb(63, 133, 219));" stroke="none" pointer-events="all"/></g></g></g></g></g></svg>